# xmcd CD database file
#
# Track frame offsets:
#	150
#	20038
#	32730
#	44763
#	58410
#	75608
#	85718
#	102345
#	114378
#	133660
#
# Disc length: 1928 seconds
#
# Revision: 6
# Processed by: cddbd v1.5.2PL0 Copyright (c) Steve Scherf et al.
# Submitted via: CDex 1.51
#
DISCID=8607860a
DTITLE=Various Artist - Big Time Country
DYEAR=2000
DGENRE=Country
TTITLE0=Marty Robbins - El Paso
TTITLE1=Johnny Horton - North to Alaska
TTITLE2=Stonewall Jackson - A Wound Time Can't Erase
TTITLE3=Jimmy Dean - Big Bad John
TTITLE4=Ray Price - For the Good Times
TTITLE5=Lester Flatt and Earl Scruggs - Detroit City
TTITLE6=Johnny Cash and June Carter Cash - The City of New Orleans
TTITLE7=Johnny Cash - Wabash Cannon Ball
TTITLE8=Tammy Wynette - Ode to Billie Joe
TTITLE9=Freddy Weller - Indian Lake
EXTD=YEAR: 2000
EXTT0=
EXTT1=
EXTT2=
EXTT3=
EXTT4=
EXTT5=
EXTT6=
EXTT7=
EXTT8=
EXTT9=
PLAYORDER=
